<svg
  width="416"
  height="22"
  viewBox="0 0 416 22"
  fill="none"
  xmlns="http://www.w3.org/2000/svg">
  <path
    d="M20.8758 21.1251C19.9402 22.2916 17.878 22.2916 16.9424 21.1251L0 2.38006e-06L37.8182 0L20.8758 21.1251Z"
    fill="#F5F5F5"
  />
  <path
    d="M58.6939 21.1251C57.7584 22.2916 55.6962 22.2916 54.7606 21.1251L37.8182 0H75.6364L58.6939 21.1251Z"
    fill="#F5F5F5"
  />
  <path
    d="M96.5121 21.1251C95.5765 22.2916 93.5144 22.2916 92.5788 21.1251L75.6364 0H113.455L96.5121 21.1251Z"
    fill="#F5F5F5"
  />
  <path
    d="M134.33 21.1251C133.395 22.2916 131.333 22.2916 130.397 21.1251L113.455 0H151.273L134.33 21.1251Z"
    fill="#F5F5F5"
  />
  <path
    d="M172.148 21.1251C171.213 22.2916 169.151 22.2916 168.215 21.1251L151.273 0H189.091L172.148 21.1251Z"
    fill="#F5F5F5"
  />
  <path
    d="M209.967 21.1251C209.031 22.2916 206.969 22.2916 206.033 21.1251L189.091 0H226.909L209.967 21.1251Z"
    fill="#F5F5F5"
  />
  <path
    d="M247.785 21.1251C246.849 22.2916 244.787 22.2916 243.852 21.1251L226.909 0H264.727L247.785 21.1251Z"
    fill="#F5F5F5"
  />
  <path
    d="M285.603 21.1251C284.667 22.2916 282.605 22.2916 281.67 21.1251L264.727 0H302.545L285.603 21.1251Z"
    fill="#F5F5F5"
  />
  <path
    d="M323.421 21.1251C322.486 22.2916 320.423 22.2916 319.488 21.1251L302.545 0H340.364L323.421 21.1251Z"
    fill="#F5F5F5"
  />
  <path
    d="M361.239 21.1251C360.304 22.2916 358.242 22.2916 357.306 21.1251L340.364 0H378.182L361.239 21.1251Z"
    fill="#F5F5F5"
  />
  <path
    d="M399.058 21.1251C398.122 22.2916 396.06 22.2916 395.124 21.1251L378.182 0H416L399.058 21.1251Z"
    fill="#F5F5F5"
  />
</svg>